<?xml version="1.0" encoding="utf-8"?>
<!-- Generator: Adobe Illustrator 22.1.0, SVG Export Plug-In . SVG Version: 6.00 Build 0)  -->
<svg version="1.1" id="Layer_1" xmlns="http://www.w3.org/2000/svg" xmlns:xlink="http://www.w3.org/1999/xlink" x="0px" y="0px"
	 viewBox="0 0 360 360" style="enable-background:new 0 0 360 360;" xml:space="preserve">
<style type="text/css">
	.st0{fill:#FFFFFF;}
	.st1{fill:#606161;}
	.st2{fill:#F26522;}
	.st3{fill:#606060;}
	.st4{fill:#222222;}
</style>
<g>
	<g>
		<path class="st0" d="M142.3,260.3c0.6-27.8-9-51.5-27.5-72.2c-27.4-30.8-28.5-76.8-3.7-109.4c22-28.8,58.1-40.5,93.5-30.2
			c33,9.6,57.9,40.6,60.6,75.9c1.8,24-4.7,45.7-20.9,63.6c-18.8,20.7-29.6,44.4-29.9,72.7c-5.1,0-10.2-0.3-15.3,0.1
			c-4.4,0.4-5.3-1.3-5.6-5.5c-0.9-15-1.8-29.9-1.7-44.9c0-4.5-1-9.4,0.3-13.4c1.8-5.3,8.1-3.2,12.2-4.6
			c22.2-7.5,31.3-32.8,18.6-52.5c-6.6-10.1-17.7-11-25.7-1.8c-3.7,4.2-5.9,9.3-7.5,14.6c-3,10.1-4.1,20.5-4.7,31
			c-0.2,3.6-1.5,5-4.8,4.3c-3-0.6-7.7,2.4-8.1-4.1c-0.4-6.5-1.1-13.1-2-19.6c-1.4-9.9-4.3-19.2-11.4-26.7
			c-6.7-6.9-14.6-7.6-20.4-1.4c-12.2,13.1-14.5,40.3,6.9,51.9c5.3,2.9,10.9,4.5,16.7,5.6c2.3,0.4,3.5,1,3.5,3.7
			c0.1,19.7-0.1,39.4-2,59.1c-0.3,2.9-0.9,4.5-4.3,4.3C153.7,260.2,148,260.3,142.3,260.3z"/>
		<path class="st1" d="M142.2,260.1c5.7,0.1,11.4,0,17.1,0.4c3.4,0.2,4-1.3,4.3-4.3c1.8-19.6,2.1-39.3,2-59.1c0-2.8-1.2-3.3-3.5-3.7
			c-5.8-1.1-11.5-2.8-16.7-5.6c-21.4-11.6-19.1-38.8-6.9-51.9c5.8-6.2,13.7-5.5,20.4,1.4c7.1,7.4,10,16.8,11.4,26.7
			c0.9,6.5,1.6,13,2,19.6c0.4,6.5,5,3.6,8.1,4.1c3.3,0.6,4.6-0.8,4.8-4.3c0.6-10.4,1.7-20.9,4.7-31c1.6-5.4,3.9-10.4,7.5-14.6
			c7.9-9.2,19.1-8.3,25.7,1.8c12.8,19.7,3.6,45-18.6,52.5c-4.2,1.4-10.4-0.7-12.2,4.6c-1.4,4-0.3,8.9-0.3,13.4
			c-0.1,15,0.8,30,1.7,44.9c0.3,4.1,1.2,5.8,5.6,5.5c5.1-0.4,10.2-0.1,15.3-0.1c0,0.5,0.1,0.9,0.1,1.4c-23.9,0-47.7,0-71.6,0
			C142.7,261.2,142.4,260.7,142.2,260.1z M165.5,183.3c-1.8-14.3-1.9-27.4-9.6-38.6c-2.4-3.5-5.4-6.3-10.1-5.6
			c-4.7,0.7-6.7,4.3-8.1,8.3c-6.5,18.6,3,35,22.1,38.8C163.7,187,166.6,187.1,165.5,183.3z M221.1,159.5c0-5-0.8-9.8-3-14.3
			c-3.5-7.2-9.6-8.2-15.1-2.3c-1.5,1.6-2.8,3.5-3.8,5.5c-5.5,11.3-6.1,23.7-7,36c-0.2,2.2,0.6,2.5,2.9,2.4
			C210.3,185.7,221,174.7,221.1,159.5z M183.6,211.6c0.1,0,0.2,0,0.4,0c0-4.1-0.5-8.3,0.1-12.3c0.7-4.9-2.3-4.3-5.1-4.2
			c-2.8,0.2-6.5-1.9-6.2,4.2c0.7,16.4-0.2,32.9-1.3,49.3c-0.9,12.3-0.7,12.2,11.6,11.9c3.1-0.1,4-0.7,3.7-4
			C185.5,241.5,184.6,226.5,183.6,211.6z"/>
		<path class="st2" d="M190.5,314.8l-0.8,0.3c-7.4,1.6-14.7,1.8-22.1,0.2l-1-0.4c-1.7-0.7-3.5-1.4-5.2-2.1c0,0-0.2-0.1-0.2-0.1
			l-2.1-1.1l-0.5-0.3c-0.3-0.2-0.6-0.4-0.9-0.6c0,0-0.5-0.3-0.5-0.3l-1.9-1.3c0,0-0.3-0.3-0.3-0.3c-0.3-0.3-0.7-0.6-1-1
			c0,0-0.2-0.2-0.2-0.2c-0.3-0.3-0.7-0.7-1-1c0,0-0.3-0.3-0.3-0.3c-0.3-0.3-0.7-0.7-1-1c0,0-0.2-0.2-0.2-0.2c-0.3-0.3-0.7-0.7-1-1
			c0,0-0.3-0.3-0.3-0.3c-0.3-0.4-0.6-0.8-0.9-1.2c0,0-0.2-0.2-0.2-0.2l-2.4-3.5c0,0-0.2-0.2-0.2-0.2L144,294c0,0-0.1-0.2-0.1-0.2
			c-2.8-8.4-2-27.2-2-27.2h72.5c0.6,8.3,0.6,16.6-1,24.8l-0.4,1c-0.7,1.7-1.5,3.4-2.2,5.1c0,0-0.1,0.1-0.1,0.1
			c-0.2,0.4-0.5,0.8-0.7,1.2c-0.3,0.5-0.5,0.9-0.8,1.4c-0.3,0.4-0.5,0.7-0.8,1.1c0,0-0.2,0.3-0.2,0.3c-0.3,0.4-0.5,0.7-0.8,1.1
			l-0.3,0.6c-0.5,0.5-1,1-1.5,1.5c0,0-0.3,0.3-0.3,0.3c-0.7,0.7-1.5,1.5-2.2,2.2c0,0-0.3,0.3-0.3,0.3c-0.5,0.5-1,1-1.6,1.5
			c-0.6,0.4-1.2,0.9-1.8,1.3l-3.8,2.2c-0.4,0.2-0.8,0.5-1.3,0.7c-0.3,0.2-0.6,0.4-0.9,0.5c-0.5,0.2-1.1,0.4-1.6,0.6
			C191.5,314.5,191,314.7,190.5,314.8z"/>
		<path class="st3" d="M16.2,135.4c-6.1-1.2-9.7-6.8-8.7-12c1.1-5.4,5.6-8.8,13.2-8.1c6.8,0.6,8.1-2.2,7.8-8.3
			c-0.4-8.3,3.8-13.2,10.3-13c6.2,0.1,9.9,5,10,12.9c0.1,9.3-1,8.2,8.1,8.3c8.1,0.1,13,4.2,12.9,10.7c-0.2,6.1-5,10.3-12.9,9.8
			c-6-0.3-8.8,0.9-8.2,7.8c0.6,7.6-2.7,12.1-8.1,13.3c-5.2,1.1-11.3-1.7-12.4-8.5C28.3,133.5,28.7,135.4,16.2,135.4z"/>
		<path class="st2" d="M96.8,217.1c0,5.8-4.1,9.4-11,9.9c-8.5,0.5-8.5,0.5-9,9.1c-0.4,6.8-4.1,11.1-9.8,11.2c-6,0.2-10-4-10-11.4
			c0-8.8,0.1-8.9-8.7-9c-7.4,0-11.6-3.8-11.5-9.9c0-6,4.3-9.8,11.5-10.1c8.3-0.4,8.3-0.4,8.6-8.8c0.3-7,3.8-11.1,9.5-11.3
			c6-0.2,10,4.2,10.4,11.3c0.4,8.3,0.4,8.3,9.1,8.8C92.5,207.4,96.8,211.3,96.8,217.1z"/>
		<path class="st2" d="M290.3,186.8c5.9-0.2,9.6,3.8,10.1,10.8c0.6,9,0.6,9,9.3,9.5c6.8,0.4,10.9,4.2,10.9,10c0,5.8-4.2,9.6-11,10
			c-8.5,0.5-8.5,0.5-9.2,9.5c-0.5,6.6-4.1,10.5-9.6,10.6c-5.8,0.1-9.8-4-10.2-10.8c-0.1-1.6-0.1-3.3,0-4.9c0.2-3.1-1.1-4.6-4.3-4.4
			c-2.4,0.1-4.9,0.1-7.3-0.3c-5.4-1-8.9-5.4-8.3-10.5c0.6-5.4,3.8-8.4,9.1-9.1c0.6-0.1,1.2-0.1,1.8-0.1c8.6-0.5,8.6-0.5,9-9.1
			C280.9,191.2,284.6,187,290.3,186.8z"/>
		<path class="st0" d="M165.6,183.5c1.1,3.7-1.8,3.6-5.6,2.9c-19.2-3.7-28.6-20.2-22.1-38.8c1.4-4,3.4-7.6,8.1-8.3
			c4.7-0.7,7.7,2.1,10.1,5.6C163.7,156,163.8,169.1,165.6,183.5z"/>
		<path class="st0" d="M221.2,159.7c-0.1,15.2-10.7,26.2-26,27.3c-2.2,0.2-3-0.2-2.9-2.4c0.9-12.3,1.5-24.6,7-36
			c1-2,2.3-3.9,3.8-5.5c5.5-5.9,11.6-5,15.1,2.3C220.4,149.8,221.2,154.7,221.2,159.7z"/>
		<path class="st0" d="M186.5,255.5c0.3,3.4-0.6,4.1-3.8,4.1c-12.6,0.3-12.8,0.4-11.8-12.2c1.2-16.8,2-33.6,1.4-50.4
			c-0.2-6.2,3.5-4.1,6.3-4.3c2.9-0.2,5.5-0.8,5.2,4.2c-0.2,4.2-0.1,8.4-0.1,12.6C183.6,209.6,185.2,240.2,186.5,255.5z"/>
		<path class="st4" d="M214.4,267.1c-24,0-48.4-0.1-72.4-0.1c-0.5-0.1-0.2-8.1,0-8.6c24.3,0,48.5,0,72.8,0
			C214.9,258.7,214.7,264.6,214.4,267.1z"/>
		<path class="st3" d="M298.9,135.6c-6.5-1.6-9.6-6.9-8.6-12.2c1.1-5.4,5.6-8.8,13.2-8.1c6.8,0.6,8.1-2.2,7.8-8.3
			c-0.4-8.3,3.8-13.2,10.3-13c6.2,0.1,9.9,5,10,12.9c0.1,9.3-1,8.2,8.1,8.3c8.1,0.1,13,4.2,12.9,10.7c-0.2,6.1-5,10.3-12.9,9.8
			c-6-0.3-8.8,0.9-8.2,7.8c0.6,7.6-2.7,12.1-8.1,13.3c-5.2,1.1-11.8-3.2-12.4-8.5C311.2,133.5,312.1,135.7,298.9,135.6z"/>
	</g>
</g>
</svg>
