<svg id="Layer_1" data-name="Layer 1" xmlns="http://www.w3.org/2000/svg" viewBox="0 0 345.44 271.8"><defs><style>.cls-1{fill:#fff;}.cls-2{fill:#606161;}.cls-3{fill:#f26522;}.cls-4{fill:#606060;}.cls-5{fill:#222;}</style></defs><title>SCM Logo1</title><path class="cls-1" d="M142.31,260.25c.58-27.83-9-51.47-27.48-72.21-27.38-30.77-28.54-76.79-3.66-109.45,22-28.85,58.09-40.53,93.52-30.24,33,9.56,57.9,40.56,60.6,75.91,1.83,24-4.69,45.71-20.9,63.59-18.79,20.73-29.64,44.41-29.88,72.69-5.1,0-10.23-.31-15.3.1-4.38.36-5.35-1.35-5.61-5.46-.95-15-1.84-29.91-1.71-44.91,0-4.5-1-9.38.34-13.4,1.81-5.29,8.06-3.21,12.22-4.61,22.22-7.46,31.35-32.8,18.58-52.48-6.59-10.14-17.71-11-25.66-1.83a38.89,38.89,0,0,0-7.54,14.65c-3,10.1-4.06,20.51-4.69,31-.22,3.56-1.47,5-4.77,4.33-3-.58-7.73,2.36-8.08-4.13s-1.06-13.1-2-19.59c-1.4-9.89-4.28-19.25-11.4-26.67-6.65-6.93-14.61-7.61-20.39-1.41C126.31,149.2,124,176.42,145.4,188a56.4,56.4,0,0,0,16.75,5.62c2.31.43,3.51,1,3.52,3.72.14,19.71-.11,39.4-2,59.05-.28,2.92-.86,4.48-4.28,4.25C153.74,260.25,148,260.35,142.31,260.25Z" transform="translate(-7.28 -44.67)"/><path class="cls-2" d="M142.19,260.11c5.71.1,11.44,0,17.13.37,3.41.23,4-1.33,4.28-4.25,1.85-19.65,2.1-39.34,2-59.05,0-2.76-1.22-3.29-3.52-3.72a56.31,56.31,0,0,1-16.75-5.62c-21.38-11.56-19.09-38.78-6.87-51.9,5.78-6.2,13.74-5.52,20.39,1.41,7.12,7.43,10,16.78,11.39,26.67.92,6.49,1.62,13,2,19.59s5,3.55,8.07,4.13c3.31.63,4.56-.76,4.77-4.32.64-10.45,1.68-20.86,4.7-31a38.82,38.82,0,0,1,7.54-14.65c8-9.16,19.07-8.31,25.65,1.83,12.78,19.68,3.64,45-18.57,52.48-4.16,1.4-10.41-.68-12.22,4.61-1.38,4-.3,8.9-.34,13.4-.13,15,.76,30,1.71,44.92.26,4.1,1.22,5.81,5.6,5.45,5.07-.41,10.2-.09,15.31-.09,0,.45,0,.9.07,1.36H142.88Zm23.33-76.78c-1.84-14.32-1.93-27.43-9.59-38.61-2.4-3.51-5.42-6.27-10.08-5.57s-6.67,4.34-8.06,8.32c-6.5,18.58,3,35,22.12,38.76C163.71,187,166.63,187.08,165.52,183.33Zm55.55-23.81a31.72,31.72,0,0,0-3-14.32C214.53,138,208.5,137,203,143a23.11,23.11,0,0,0-3.83,5.52c-5.52,11.34-6.11,23.69-7,36-.15,2.16.65,2.54,2.88,2.38C210.32,185.75,221,174.67,221.07,159.52Zm-37.48,52.06.35,0c0-4.11-.47-8.3.12-12.32.71-4.91-2.27-4.33-5.07-4.16s-6.45-1.89-6.21,4.19c.65,16.43-.15,32.87-1.35,49.28-.9,12.31-.75,12.21,11.58,11.94,3.11-.06,4-.68,3.71-4.05C185.48,241.51,184.6,226.54,183.59,211.58Z" transform="translate(-7.28 -44.67)"/><path class="cls-3" d="M190.47,314.83l-.83.34a51.89,51.89,0,0,1-22.12.2l-1-.38-5.19-2.14-.21-.12L159,311.61l-.49-.31-.91-.65-.45-.31L155.27,309l-.33-.27-1-1-.18-.17-1-1-.31-.3-1-1.05-.16-.17-1.05-1-.25-.26-.89-1.16-.16-.22L146.52,299l-.15-.22L144,294l-.1-.2c-2.83-8.43-2-27.22-2-27.22h72.54c.55,8.32.63,16.61-1,24.83l-.45,1c-.73,1.71-1.46,3.41-2.2,5.12l-.09.15c-.24.38-.47.77-.7,1.15l-.77,1.4-.78,1.07-.23.27-.76,1.06-.33.56-1.5,1.51-.29.31-2.18,2.2-.28.27L201.31,309l-1.82,1.34-3.75,2.21-1.26.7-.88.54-1.6.56Z" transform="translate(-7.28 -44.67)"/><path class="cls-4" d="M16.16,135.43c-6.08-1.19-9.75-6.8-8.7-12,1.09-5.44,5.61-8.79,13.17-8.15,6.84.59,8.11-2.2,7.8-8.28C28,98.65,32.26,93.8,38.78,94c6.2.15,9.94,5,10,12.87.1,9.27-1,8.16,8.13,8.26,8.1.09,13,4.17,12.87,10.67-.17,6.15-5,10.27-12.91,9.84-6-.32-8.83.92-8.25,7.83.65,7.64-2.65,12.13-8.09,13.26a10.25,10.25,0,0,1-12.45-8.48C28.3,133.48,28.74,135.44,16.16,135.43Z" transform="translate(-7.28 -44.67)"/><path class="cls-3" d="M96.78,217.07c0,5.78-4.08,9.44-11,9.85-8.51.52-8.51.52-9,9.07-.36,6.84-4.05,11.06-9.79,11.22-6,.16-10-4-10-11.37,0-8.82.08-8.91-8.69-9-7.44,0-11.56-3.83-11.55-9.87s4.34-9.78,11.54-10.08c8.27-.36,8.27-.36,8.61-8.8.28-7,3.8-11.14,9.53-11.32,6-.18,10,4.16,10.35,11.27.43,8.28.43,8.28,9.09,8.85C92.53,207.37,96.78,211.32,96.78,217.07Z" transform="translate(-7.28 -44.67)"/><path class="cls-3" d="M290.32,186.81c5.87-.15,9.59,3.82,10.07,10.75.62,9,.62,9,9.26,9.53,6.82.44,10.93,4.2,10.9,10s-4.23,9.6-11,10c-8.52.52-8.52.52-9.18,9.49-.49,6.56-4.06,10.52-9.61,10.63-5.8.12-9.78-4-10.22-10.75a42.68,42.68,0,0,1,0-4.93c.18-3.1-1.07-4.56-4.27-4.45a33.11,33.11,0,0,1-7.32-.32c-5.41-1-8.86-5.36-8.33-10.47.56-5.43,3.76-8.43,9.14-9.06.61-.07,1.22-.1,1.83-.14,8.56-.5,8.56-.5,9-9.08C280.85,191.2,284.56,187,290.32,186.81Z" transform="translate(-7.28 -44.67)"/><path class="cls-1" d="M165.63,183.47c1.11,3.74-1.8,3.63-5.61,2.9-19.16-3.72-28.61-20.18-22.12-38.76,1.39-4,3.39-7.62,8.06-8.33s7.68,2.07,10.08,5.58C163.7,156,163.79,169.14,165.63,183.47Z" transform="translate(-7.28 -44.67)"/><path class="cls-1" d="M221.17,159.66c-.06,15.15-10.74,26.23-26,27.29-2.23.15-3-.22-2.87-2.38.87-12.27,1.45-24.62,7-36a23.13,23.13,0,0,1,3.82-5.53c5.53-5.92,11.56-5,15.09,2.26A31.55,31.55,0,0,1,221.17,159.66Z" transform="translate(-7.28 -44.67)"/><path class="cls-1" d="M186.46,255.47c.28,3.44-.61,4.07-3.79,4.14-12.6.27-12.75.37-11.84-12.21,1.23-16.77,2-33.57,1.38-50.37-.24-6.21,3.53-4.1,6.35-4.27s5.48-.82,5.18,4.24c-.24,4.21-.12,8.39-.12,12.6C183.62,209.6,185.19,240.2,186.46,255.47Z" transform="translate(-7.28 -44.67)"/><path class="cls-5" d="M214.45,267.08c-24,0-48.42-.12-72.4-.14-.45-.07-.24-8.1,0-8.6h72.77C214.93,258.75,214.68,264.58,214.45,267.08Z" transform="translate(-7.28 -44.67)"/><path class="cls-4" d="M299,135.59c-6.46-1.65-9.62-6.93-8.57-12.16,1.09-5.44,5.61-8.79,13.17-8.15,6.84.59,8.11-2.2,7.8-8.28-.42-8.32,3.83-13.17,10.35-13,6.2.15,9.94,5,10,12.87.1,9.27-1,8.16,8.13,8.26,8.1.09,13,4.17,12.87,10.67-.17,6.14-5.05,10.27-12.91,9.84-6-.32-8.83.92-8.25,7.83.65,7.64-2.65,12.13-8.09,13.26-5.21,1.08-11.77-3.24-12.45-8.48C311.22,133.51,312.06,135.66,299,135.59Z" transform="translate(-7.28 -44.67)"/></svg>